<svg xmlns="http://www.w3.org/2000/svg" xmlns:xlink="http://www.w3.org/1999/xlink" width="288" zoomAndPan="magnify" viewBox="0 0 216 215.999996" height="288" preserveAspectRatio="xMidYMid meet" version="1.0"><defs><clipPath id="1e4fd010ba"><path d="M 86 1.753906 L 171 1.753906 L 171 55 L 86 55 Z M 86 1.753906 " clip-rule="nonzero"/></clipPath></defs><g clip-path="url(#1e4fd010ba)"><path fill="#097661" d="M 89.335938 42.152344 C 91.339844 38.058594 93.261719 33.535156 97.355469 31.105469 C 106.359375 25.046875 117.578125 26.15625 127.816406 24.578125 C 133.703125 24.152344 139.246094 22.101562 144.75 20.054688 C 144.496094 20.226562 142.40625 21.421875 139.417969 22.871094 C 139.332031 22.914062 139.289062 22.957031 139.203125 22.957031 C 138.949219 23.085938 138.734375 23.167969 138.480469 23.296875 C 138.394531 23.339844 138.351562 23.382812 138.265625 23.382812 C 135.75 24.535156 132.761719 25.816406 129.648438 26.753906 C 128.027344 27.265625 126.363281 27.691406 124.742188 27.992188 C 116.554688 29.695312 107.722656 29.484375 100.8125 34.730469 C 95.691406 38.3125 94.027344 44.542969 92.109375 50.085938 C 100.257812 56.058594 111.136719 55.207031 120.519531 53.457031 C 140.785156 48.808594 155.117188 31.871094 165.097656 14.679688 C 165.566406 13.785156 166.039062 12.933594 166.507812 12.035156 C 168.214844 8.707031 169.621094 5.210938 170.984375 1.753906 C 170.515625 2.054688 169.492188 2.652344 169.023438 2.949219 C 164.542969 5.679688 159.253906 7.300781 154.007812 6.789062 C 152.683594 6.660156 151.363281 6.488281 150.082031 6.363281 C 148.164062 6.148438 146.242188 5.9375 144.324219 5.765625 C 135.878906 4.613281 127.386719 4.273438 118.855469 4.65625 C 116.808594 4.867188 114.761719 5.167969 112.800781 5.59375 C 109.003906 6.703125 105.375 8.410156 102.050781 10.585938 C 99.191406 12.503906 96.632812 14.851562 94.371094 17.453125 C 88.910156 24.664062 85.070312 34.347656 87.929688 43.347656 C 88.355469 43.050781 88.996094 42.453125 89.335938 42.152344 Z M 89.335938 42.152344 " fill-opacity="1" fill-rule="nonzero"/></g><path fill="#097661" d="M 213.730469 43.347656 C 212.109375 41.941406 210.230469 40.832031 208.3125 39.890625 C 200.632812 37.757812 192.527344 39.59375 185.191406 42.066406 C 178.75 44.371094 172.308594 46.929688 166.464844 50.515625 C 175.125 48.125 185.191406 44.15625 193.550781 49.703125 C 195.472656 56.742188 190.097656 62.628906 185.449219 67.152344 C 179.601562 62.246094 172.992188 58.363281 165.953125 55.460938 C 144.964844 47.910156 119.582031 53.371094 103.839844 69.242188 C 89.71875 55.503906 68.773438 49.105469 49.492188 53.457031 C 26.371094 57.894531 7.601562 77.433594 3.039062 100.382812 C 0.0078125 118.34375 4.660156 137.75 17.074219 151.316406 C 25.050781 160.148438 35.5 166.375 45.609375 172.433594 C 61.566406 170.128906 77.648438 164.328125 89.847656 153.40625 C 84.515625 144.578125 83.707031 131.269531 92.535156 124.355469 C 109.640625 111.773438 127.046875 99.53125 144.152344 86.945312 C 146.457031 85.28125 148.761719 83.488281 151.492188 82.550781 C 155.03125 82.335938 158.53125 85.453125 157.847656 89.121094 C 157.890625 91.59375 155.671875 93.003906 153.964844 94.367188 C 144.152344 101.449219 134.257812 108.445312 124.488281 115.65625 C 119.070312 119.238281 125.765625 129.175781 131.058594 125.082031 C 141.933594 117.703125 152.214844 109.425781 163.179688 102.21875 C 167.617188 99.273438 173.671875 105.246094 171.027344 109.808594 C 168.511719 113.09375 164.757812 115.058594 161.515625 117.488281 C 153.710938 123.207031 145.730469 128.664062 138.054688 134.59375 C 132.59375 138.222656 139.460938 147.988281 144.664062 143.894531 C 154.691406 136.984375 164.375 129.605469 174.269531 122.566406 C 176.277344 121.242188 178.621094 119.578125 181.140625 120.644531 C 185.574219 121.710938 186.472656 128.367188 182.675781 130.753906 C 163.945312 144.320312 145.21875 157.929688 126.40625 171.410156 C 118.300781 177.339844 106.613281 175.035156 100.171875 167.742188 C 87.503906 178.191406 72.488281 185.0625 57.46875 191.289062 C 49.917969 194.230469 41.855469 196.535156 33.710938 195.640625 C 28.632812 195.085938 23.171875 192.78125 20.867188 187.960938 C 18.140625 182.886719 18.949219 176.957031 20.230469 171.625 C 14.769531 179.472656 8.96875 188.21875 9.777344 198.242188 C 10.117188 203.660156 13.914062 208.054688 18.308594 210.910156 C 19.417969 211.296875 20.527344 211.722656 21.636719 212.148438 C 29.484375 214.238281 37.71875 213.769531 45.652344 212.363281 C 58.792969 209.375 71.335938 204.257812 83.320312 198.242188 C 90.105469 202.722656 96.84375 207.199219 103.542969 211.765625 C 124.957031 197.816406 146.03125 183.3125 167.359375 169.148438 C 173.714844 164.839844 180.371094 160.914062 186.085938 155.710938 C 194.746094 147.988281 200.71875 137.625 203.492188 126.445312 L 203.578125 126.574219 C 206.605469 116.125 205.839844 106.269531 204.003906 98.546875 C 203.789062 97.652344 203.578125 96.800781 203.363281 95.988281 C 201.1875 88.183594 198.160156 83.0625 197.859375 82.59375 C 197.859375 82.550781 197.820312 82.550781 197.820312 82.550781 C 204.558594 75.769531 210.828125 68.089844 214.070312 58.960938 C 215.90625 53.96875 215.992188 48.253906 213.730469 43.347656 Z M 29.484375 87.628906 C 19.289062 102.003906 18.4375 122.222656 27.183594 137.496094 C 29.699219 142.445312 33.667969 146.367188 37.335938 150.464844 C 26.285156 143.511719 17.925781 132.207031 15.578125 119.28125 C 13.445312 109.382812 15.152344 99.058594 19.289062 89.929688 C 21.339844 86.433594 44.074219 49.574219 84.472656 70.394531 C 65.148438 62.375 41.003906 70.265625 29.484375 87.628906 Z M 166.082031 57.042969 C 166.121094 57.679688 166.164062 58.320312 166.207031 58.746094 C 166.121094 58.320312 166.082031 57.679688 166.082031 57.042969 Z M 166.082031 57.042969 " fill-opacity="1" fill-rule="nonzero"/></svg>